<mxfile host="app.diagrams.net" modified="2023-03-15T07:30:28.682Z" agent="5.0 (Windows NT 10.0; Win64; x64) AppleWebKit/537.36 (KHTML, like Gecko) Chrome/110.0.0.0 Safari/537.36 Edg/110.0.1587.69" etag="1FhQMNgbw4b8_SrWmXOd" version="21.0.6" type="github">
  <diagram name="Pagina-1" id="bSAx_G-MFenrAfUaYNS4">
    <mxGraphModel dx="747" dy="470" grid="1" gridSize="10" guides="1" tooltips="1" connect="1" arrows="1" fold="1" page="1" pageScale="1" pageWidth="827" pageHeight="1169" math="0" shadow="0">
      <root>
        <mxCell id="0" />
        <mxCell id="1" parent="0" />
        <mxCell id="viBytmghrK9jtCA6yhb1-15" value="Client" style="swimlane;whiteSpace=wrap;html=1;" vertex="1" parent="1">
          <mxGeometry x="40" y="40" width="200" height="1080" as="geometry" />
        </mxCell>
        <mxCell id="viBytmghrK9jtCA6yhb1-16" value="Comerciant" style="swimlane;whiteSpace=wrap;html=1;" vertex="1" parent="viBytmghrK9jtCA6yhb1-15">
          <mxGeometry x="200" width="200" height="1080" as="geometry" />
        </mxCell>
        <mxCell id="viBytmghrK9jtCA6yhb1-19" value="" style="strokeWidth=2;html=1;shape=mxgraph.flowchart.start_2;whiteSpace=wrap;strokeColor=#000000;fillColor=#000000;" vertex="1" parent="viBytmghrK9jtCA6yhb1-15">
          <mxGeometry x="80" y="40" width="40" height="40" as="geometry" />
        </mxCell>
        <mxCell id="viBytmghrK9jtCA6yhb1-17" value="Curierat" style="swimlane;whiteSpace=wrap;html=1;" vertex="1" parent="1">
          <mxGeometry x="440" y="40" width="200" height="1080" as="geometry" />
        </mxCell>
      </root>
    </mxGraphModel>
  </diagram>
</mxfile>
